<svg xmlns="http://www.w3.org/2000/svg" width="100" height="62" viewBox="0 0 100 62">
    <g fill="none" fill-rule="evenodd">
        <g fill="#486D9E">
            <path d="M7.587 19.567c.463-.102.846-.125 1.16-.277.218-.105.445-.372.485-.596.112-.633.227-1.265.223-1.92-.024-3.512-.011-7.025-.012-10.539 0-.237.04-.486-.017-.712-.122-.487-.106-1.083-.735-1.283-.333-.106-.71-.093-1.104-.138v15.465zM.993.01h.606c2.598.003 5.196-.036 7.792.028 1.31.033 2.64.167 3.851.711 1.225.55 2.035 1.488 2.387 2.73.15.53.198 1.1.2 1.65.015 4.763.019 9.526 0 14.289-.004.878-.198 1.725-.72 2.494-.463.682-1.143 1.104-1.893 1.309-.845.23-1.723.406-2.63.399-2.879-.022-5.759-.008-8.638-.008l-.469.001c-.299 0-.461-.146-.483-.425-.012-.148-.002-.297-.002-.447L.993.594V.009zM57.886 19.452c1.218.22 1.776-.446 1.855-1.466.023-.296.016-.595.016-.893V5.916c0-.239.014-.48-.016-.715-.096-.745-.502-1.005-1.121-1.067-.236-.023-.477-.004-.734-.004v15.322zm-6.4 4.138V0h.734c2.32.004 4.639-.01 6.958.018.896.011 1.81.028 2.68.2 1.107.22 2.194.556 3.036 1.368.75.723 1.099 1.611 1.248 2.58.193 1.26.197 2.532.194 3.804-.01 3.514.014 7.03-.03 10.544-.011.869-.152 1.754-.378 2.598-.25.925-.957 1.593-1.875 1.952-.876.342-1.809.554-2.776.554-3.133 0-6.267.002-9.402 0-.12 0-.239-.016-.39-.028zM48.515 23.612H43.11l-3.005-9.982c-.034.036-.056.054-.07.075-.015.024-.033.052-.033.078C40 17.031 40 20.28 40 23.49c-.057.057-.076.082-.101.098a.163.163 0 0 1-.08.03l-4.993.001c-.172-.827-.24-18.833-.09-23.55.858-.123 1.73-.04 2.596-.056C38.18 0 39.029.01 39.97.01l3.23 9.803c.06-.112.2-.249.185-.369-.228-1.922-.048-3.85-.094-5.775-.028-1.187-.005-2.376-.005-3.652C45.04.002 46.753.015 48.515.01v23.603zM26.194.06h6.421c.02.16.058.328.058.498 0 6.12-.003 12.242-.008 18.363-.002 1.441-.582 2.639-1.607 3.69-.906.93-1.994 1.6-3.27 1.74-1.09.119-2.18.425-3.341.123-.726-.19-1.523-.179-2.273-.408-1.3-.397-2.381-1.093-3.19-2.118-.542-.686-.9-1.473-.978-2.37-.278-3.226-.154-6.457-.17-9.686-.018-3.242-.005-6.485-.005-9.725.705-.173 3.692-.22 6.597-.1.015.25.042.51.042.77.002 5.818.002 11.636.002 17.455 0 .455.028.91.01 1.363-.014.362.21.58.487.716.302.148.616.012.878-.163.084-.055.123-.19.156-.295.17-.55.195-1.113.195-1.684-.006-5.727-.004-11.455-.004-17.183V.06zM86.43 4.052v4.64c0 .117-.027.26.03.346.072.112.277.274.319.248.33-.205.785-.034 1.066-.374.254-.308.396-.637.388-1.045a46.08 46.08 0 0 1 .004-2.413c.019-.588-.26-.959-.777-1.16-.29-.111-.613-.147-1.03-.242M80.277 0h1.314c2.201.003 4.401 0 6.602.012.92.005 1.844.098 2.71.38 1.266.414 2.12 1.284 2.622 2.539.335.837.39 1.703.486 2.565.079.708.047 1.432.005 2.145-.031.552-.13 1.102-.24 1.644-.233 1.129-1.032 1.644-2.107 1.846-.165.03-.322.1-.607.192.526.286 1.012.335 1.41.62.758.543 1.229 1.19 1.42 2.125.146.712.13 1.411.138 2.114.023 2.326.01 4.653.01 6.98 0 .143-.015.286-.026.457h-5.78v-.898c.002-2.506.003-5.011 0-7.517 0-.44-.012-.871-.158-1.306-.178-.529-.357-.75-.874-.812a2.51 2.51 0 0 0-.362-.009c-.115.004-.23.02-.403.035v10.499h-6.082c-.157-.86-.22-18.866-.078-23.61M68.317 23.619V.144c.615-.155 8.976-.204 10.495-.051 0 1.415.007 2.838-.004 4.262-.003.386-.135.493-.579.498-.859.01-1.72.003-2.579.002-.184 0-.369-.008-.552.002-.372.022-.507.125-.511.474a139.103 139.103 0 0 0 0 3.31c.004.411.124.52.547.526.83.01 1.658.003 2.487.003.185 0 .369-.008.553.002.29.015.441.173.442.455.002 1.223.008 2.446-.004 3.668-.004.396-.127.502-.566.507-.92.01-1.843.002-2.763.002h-.664v5.037c1.49.01 2.981 0 4.463.006.138.7.17 3.458.059 4.772H68.317z"/>
        </g>
        <g fill="#2D496F">
            <path d="M14.138 37.2c-.88 4.964-1.5 9.953-2.213 14.95-1.216 0-2.312.008-3.406-.004-.487-.006-.72-.25-.772-.723-.18-1.62-.388-3.232-.73-4.83-.152-.71-.133-1.452-.23-2.174-.125-.926-.288-1.848-.436-2.77-.033-.208-.1-.414-.105-.622-.017-.79-.184-1.553-.367-2.318-.07-.291-.039-.607-.17-.914-.014.2-.042.401-.042.602-.004 4.255-.008 8.51-.004 12.766.001.78.128 1.02-.966.994-1.286-.03-2.573-.003-3.86-.008-.808-.003-.836-.03-.836-.838-.002-6.876 0-13.751 0-20.628v-3.126h.776c2.229 0 4.458-.002 6.686 0 .758.002.947.203 1.03.964.126 1.14.26 2.278.527 3.4.125.526.076 1.076.19 1.623.225 1.064.284 2.16.427 3.24.056.416.158.826.237 1.231.26-.385.292-.827.33-1.286.063-.75.211-1.493.32-2.24.077-.539.16-1.077.217-1.617.082-.786.123-1.577.216-2.36.1-.838.244-1.671.36-2.507.041-.287.19-.437.485-.448.063-.002.125 0 .188 0 2.386 0 4.771-.004 7.157.003.555.001.633.094.65.645.006.154 0 .309 0 .463 0 7.461-.001 14.923.003 22.385 0 1.048.103 1.12-1.137 1.101-1.224-.018-2.449 0-3.673-.005-.836-.003-.85-.015-.851-.82-.003-4.41-.001-8.818-.001-13.228V37.2zM80.528 41.873v9.235c0 .185.011.37-.001.554-.024.35-.144.473-.51.485-.454.015-.91.004-1.365.004-.94 0-1.881.007-2.822-.003-.474-.006-.56-.11-.579-.603-.006-.154-.001-.309-.001-.462V28.608c0-.154-.006-.308 0-.462.021-.47.118-.58.6-.584 1.365-.009 2.73-.008 4.095 0 .42.002.647.213.766.616.305 1.035.606 2.07.929 3.098.555 1.77 1.104 3.541 1.71 5.293.107.311-.068.781.473.96v-8.967c0-.185-.009-.37.002-.554.015-.29.172-.448.46-.448 1.456-.002 2.913-.004 4.37.003.28.001.441.166.448.46.003.186 0 .37 0 .556 0 7.522-.002 15.044.002 22.567 0 .838.118 1.037-1.01 1.01-1.183-.026-2.367-.004-3.55-.006-.86-.002-.885.003-1.13-.834-.61-2.096-1.19-4.203-1.8-6.299-.31-1.061-.656-2.111-.986-3.165l-.101.021M41.58 32.54h-4.446c-.016.267-.042.503-.043.738-.004 1.11-.01 2.22.002 3.33.004.44.107.542.55.547 1.091.011 2.183.004 3.27.004.15.673.176 3.513.037 4.645h-3.86v9.289c0 .216.005.432-.004.647-.01.257-.172.38-.413.412-.093.013-.187.004-.282.004-1.654 0-3.31.005-4.965-.002-.666-.003-.73-.07-.73-.751-.002-7.677-.001-15.353-.001-23.028 0-.124-.005-.248.002-.371.017-.295.19-.434.48-.446.155-.005.312 0 .467 0h8.994c.125 0 .25-.006.375.001.45.024.555.109.563.539.015.739.005 1.48.005 2.22v2.222M53.037 37.138v4.617c-.64.075-1.3.025-1.954.034-.636.007-1.273.002-1.975.002-.02.243-.056.477-.056.711-.004 2.84-.003 5.681-.003 8.521 0 .185.007.37-.001.556-.02.47-.12.557-.634.58h-.096c-1.845-.002-3.691-.002-5.537-.007-.055 0-.112-.038-.207-.072V27.556h10.88c.02 1.626.005 3.247.011 4.929H49.1c-.02.291-.048.527-.049.762-.004 1.112-.01 2.223.002 3.334.005.437.114.547.56.552 1.112.013 2.224.005 3.424.005M54.61 27.565c1.852 0 3.56.022 5.267-.009.872-.015.872.208.87.873-.016 3.144-.007 6.288-.007 9.432v8.23c0 .184-.01.37 0 .554.022.37.129.498.48.508.57.016 1.14.004 1.708.004h1.426v1.775c0 .863.007 1.726-.003 2.588-.006.535-.097.627-.634.633-.869.01-1.738.003-2.607.003-1.888 0-3.775.003-5.663 0-.836-.003-.988-.158-.989-1.015V34.496c0-1.942-.008-3.884.006-5.825.003-.353.09-.704.146-1.106M66.416 27.557c1.817 0 3.578-.005 5.34.004.408.002.495.112.517.544.009.185.001.37.001.555 0 7.465-.002 14.93.003 22.394 0 1.126.034 1.111-1.044 1.103-1.588-.013-3.174-.004-4.755-.004-.144-.716-.2-22.823-.062-24.596M27.723 27.557v24.565c-.24.012-.464.034-.688.034-1.487.003-2.974.004-4.462 0-.778-.002-.788-.01-.788-.819-.003-4.35-.001-8.7-.001-13.05v-9.625c0-.216-.004-.432 0-.648.008-.294.157-.452.433-.455.468-.006.934-.002 1.4-.002h4.106zM91.1 54.127c0-.457.014-.73-.004-1.002-.03-.449.028-.824.415-1.132.234-.187.361-.52.6-.882l-.981-.105v-4.752h3.797c.237 1.538.123 3.916-.28 5.063-.116.332-.298.66-.52.925-.542.642-1.11 1.273-1.911 1.572-.32.12-.659.187-1.117.313"/>
        </g>
        <g fill="#6D8CB6">
            <path d="M100 30.509v2.25c-.936.393-1.877.79-2.819 1.187.936.25 1.859.108 2.805.209v2.258h-7.66c-.365-.658-.238-1.37-.162-2.065.024-.215.175-.414.46-.496.438-.124.859-.303 1.285-.463.418-.157.84-.309 1.309-.694-.936 0-1.717.007-2.496-.003-.499-.007-.598-.103-.617-.569-.013-.328-.01-.658-.001-.986.017-.528.107-.624.652-.626 2.384-.005 4.768-.002 7.244-.002M95.302 41.654v2.456a6.923 6.923 0 0 1-1.704-.003 1.17 1.17 0 0 1-.882-.657c-.192-.392-.43-.792-.488-1.213-.144-1.033-.145-2.08.178-3.088.224-.7.854-1.144 1.589-1.151 1.316-.013 2.631-.005 3.946-.007.608 0 1.026.28 1.305.844.293.59.487 1.183.483 1.86-.005.866-.002 1.713-.418 2.511-.317.61-.748.955-1.437.935-.465-.015-.93-.003-1.482-.003-.016-.827-.004-1.628-.008-2.467l1.898-.263v-.61c-.048-.03-.096-.087-.144-.087-1.373-.011-2.747-.017-4.12-.023-.087 0-.2-.023-.257.023-.126.102-.311.243-.308.363.003.121.189.312.322.342.475.105.962.154 1.527.238M99.837 29.523c-2.336 0-4.676.003-7.016-.002-.67-.002-.728-.071-.737-.785a83.228 83.228 0 0 1-.001-1.665c.002-.311.162-.472.457-.488.094-.004.187 0 .281 0h6.366c.155 0 .327-.036.462.02a.67.67 0 0 1 .318.323c.095.218-.034 2.25-.13 2.597"/>
        </g>
        <g fill="#2D496F">
            <path d="M62.683 58.35l-1.28 1.76-1.232-1.695c-.121.503-.062.915-.069 1.318-.01.624.015 1.251-.02 1.873-.007.143-.192.37-.305.379-.11.009-.263-.192-.344-.34-.052-.093-.012-.255-.013-.388v-4.09c.404-.137.713-.17.991.338.278.509.672.934 1.026 1.41.392-.56.745-1.054 1.088-1.557.207-.305.464-.34.841-.2v4.381c0 .268-.116.466-.344.46-.223-.003-.34-.2-.34-.47.003-.625.001-1.25.001-1.875V58.35zM53.004 61.246a1.707 1.707 0 0 0 1.681-1.721 1.736 1.736 0 0 0-1.724-1.699c-.926.008-1.63.789-1.699 1.722-.067.916.711 1.845 1.742 1.698m-2.488-1.69c-.207-1.4 1.153-2.449 2.446-2.476 1.403-.03 2.486 1.054 2.484 2.455-.002 1.42-1.045 2.462-2.466 2.465-1.475.002-2.463-.978-2.464-2.444M86.441 57.116c.584.028.674.068.678.43.015 1.273.01 2.546-.001 3.82-.002.148-.096.297-.154.443-.096.246-.304.218-.428.118a3.609 3.609 0 0 1-.619-.674c-.58-.793-1.137-1.606-1.717-2.398-.111-.154-.284-.249-.512-.442v3.526c-.459.04-.52-.24-.52-.598.004-1.045.002-2.09.002-3.135v-1.04c.391-.167.634-.096.865.25.444.669.93 1.3 1.402 1.943.268.363.542.72.86 1.143.232-.379.122-.738.139-1.065.02-.39.005-.783.005-1.175v-1.146zM29.349 59.153c.432.223.73.046.91-.36.076-.168.055-.448-.001-.642-.059-.204-.67-.414-.784-.274-.091.112-.108.339-.12.519-.02.253-.005.51-.005.757m2.334 2.74c-.587.257-.832-.032-1.052-.512a6.582 6.582 0 0 0-.712-1.152c-.102-.137-.305-.163-.57-.291 0 .612.015 1.093-.005 1.573-.018.403-.203.58-.59.443-.012-.164-.037-.35-.037-.534-.004-1.244-.007-2.487 0-3.732.004-.453.11-.577.463-.601.369-.023.728 0 1.085.174.752.365.972 1.45.428 2.206-.07.096-.14.19-.213.287l1.203 2.139M76.712 59.871h1.036l-.513-1.307c-.193.458-.63.734-.523 1.307m-1.348 2.127c-.255-.449.012-.796.12-1.114.367-1.072.806-2.115 1.219-3.168.056-.143.119-.285.195-.415.176-.3.457-.3.602.03.22.502.391 1.029.592 1.541.356.911.711 1.823 1.084 2.726.059.141.066.225-.045.303-.068.047-.18.121-.223.093-.18-.119-.457-.095-.496-.439a1.693 1.693 0 0 0-.213-.602c-.154-.276-.354-.5-.699-.448-.142.02-.288.003-.433.004-.747.003-.762-.003-1.01.788-.115.372-.237.688-.693.7M9.322 60.012c.042-.6-.084-1.052-.6-1.454-.027.559-.387.928-.186 1.481.15 0 .285.003.42-.001.106-.003.212-.015.366-.026m-1.253.64c-.119.339-.21.642-.327.932-.188.464-.194.46-.811.364.535-1.661 1.128-3.28 1.702-4.869.578.038.677.509.82.87.385.968.73 1.958 1.085 2.941.125.347.233.704.353 1.07-.625.073-.637.08-.826-.39-.458-1.135-.293-.885-1.244-.916-.254-.009-.508-.002-.752-.002M46.307 58.47c-.384-.117-.69-.22-1.002-.303-.905-.24-1.836.085-2.305.798-.64.97.194 2.264 1.482 2.314.549.022 1.066-.023 1.544-.297.104-.06.302.004.457.012-.018.162.026.365-.071.476-.13.15-.352.274-.562.333-1.028.284-2.005.327-2.936-.32-.345-.24-.547-.506-.669-.828-.531-1.409-.129-2.54 1.542-3.114.79-.272 1.493-.093 2.21.134.348.11.339.132.31.795M15.604 59.233c1.104.043 1.104.043 1.477-.81-.314-.682-.876-.595-1.477-.52v1.33zm-.762-2.154c.75.07 1.437-.112 2.12.179.736.312 1.1 1.31.657 1.967-.346.513-.846.757-1.435.816-.181.019-.365.003-.61.003V62h-.732v-4.92zM69.078 59.087h.53c.093 0 .186.008.277-.005a.686.686 0 0 0 .58-.647.587.587 0 0 0-.342-.587c-.362-.19-.682-.178-1.045-.096v1.335zm-.677-2.005c.536 0 1.029-.007 1.522.002.752.013 1.3.519 1.36 1.245.058.694-.555 1.448-1.26 1.52-.275.03-.554.006-.922.006-.012.337-.028.65-.036.962-.005.262.038.534-.017.783-.035.157-.196.37-.327.394-.236.044-.381-.152-.401-.418-.005-.065-.002-.13-.002-.196-.001-1.313-.003-2.625.003-3.937 0-.117.05-.234.08-.361zM21.772 62v-4.913h2.39c.071 0 .17-.023.21.01.126.106.344.257.32.345-.04.157-.213.372-.365.398-.345.061-.711.022-1.07.023l-.578.001c-.2.439-.076.877-.086 1.381.414 0 .772-.036 1.114.011.29.042.845-.255.805.313-.035.502-.554.228-.856.27-.312.042-.635.009-1.018.009v1.551h1.782c.213 0 .323.088.323.292-.001.191-.082.309-.307.309h-2.664M1.618 59.252c.296 0 .518-.016.736.004.254.024.424-.093.582-.267.387-.427.26-.971-.291-1.085-.327-.068-.677-.013-1.027-.013v1.361zm-.026.862v1.854c-.314.027-.596.134-.598-.29C.987 60.186.991 58.69.991 57.1c.526 0 1.008-.052 1.478.01 1.236.161 1.652.826 1.438 1.913-.08.404-.423.718-.866.816-.46.102-.924.177-1.449.275zM95.05 57.125c-.44.596-.744 1.082-1.118 1.498-.417.462-.56.978-.524 1.594.027.457.031.92-.01 1.374-.015.15-.187.377-.317.402-.239.046-.403-.148-.408-.414a51.51 51.51 0 0 1 0-1.769 1.026 1.026 0 0 0-.235-.707c-.462-.592-.882-1.22-1.349-1.879.413-.213.714-.204.969.117.156.198.289.416.446.614.154.194.324.374.538.618.285-.37.598-.656.76-1.016.252-.557.638-.484 1.248-.432"/>
        </g>
    </g>
</svg>
